<svg xmlns="http://www.w3.org/2000/svg" viewBox="0 0 128.0 128.0">
  <rect width="128.0" height="128.0" rx="25.6" fill="#182430"/>
  <g transform="translate(14.00,35.85)">
    <path d="M 45.48 30.79 C 45.23 30.64 44.37 30.46 44.08 30.66 C 43.80 30.86 43.70 31.66 43.77 32.00 C 43.83 32.34 44.43 32.52 44.47 32.70 C 44.50 32.88 44.18 33.06 43.96 33.08 C 43.73 33.10 43.48 32.69 43.13 32.82 C 42.78 32.96 42.07 33.44 41.86 33.91 C 41.65 34.37 42.30 34.79 41.86 35.62 C 41.41 36.46 40.09 38.01 39.19 38.93 C 38.28 39.85 37.29 40.31 36.45 41.16 C 35.61 42.01 34.90 43.31 34.16 44.02 C 33.42 44.73 32.73 44.70 32.00 45.42 C 31.27 46.14 31.56 47.11 29.77 48.35 C 27.98 49.59 22.48 51.78 21.25 52.86 C 20.02 53.94 21.70 54.39 22.39 54.83 C 23.08 55.28 24.72 55.47 25.38 55.53 C 26.04 55.60 26.00 55.10 26.34 55.22 C 26.68 55.33 26.87 56.06 27.42 56.23 C 27.97 56.40 29.08 56.35 29.64 56.23 C 30.21 56.12 30.21 55.68 30.79 55.53 C 31.37 55.39 32.34 55.29 33.14 55.34 C 33.95 55.40 34.49 56.10 35.62 55.85 C 36.76 55.61 38.63 54.10 39.95 53.88 C 41.26 53.66 42.71 54.51 43.51 54.52 C 44.32 54.53 44.41 54.26 44.78 53.94 C 45.15 53.63 45.60 53.00 45.74 52.61 C 45.88 52.22 45.45 52.01 45.61 51.59 C 45.77 51.17 46.44 50.71 46.69 50.06 C 46.95 49.42 47.26 48.49 47.14 47.71 C 47.01 46.93 46.44 45.63 45.93 45.36 C 45.42 45.08 44.34 45.70 44.08 46.06 C 43.83 46.42 44.59 46.60 44.40 47.52 C 44.21 48.44 43.33 50.80 42.94 51.59 C 42.55 52.39 42.49 52.37 42.05 52.29 C 41.60 52.21 40.55 51.64 40.27 51.08 C 39.98 50.52 40.47 49.40 40.33 48.92 C 40.19 48.44 39.95 48.16 39.44 48.22 C 38.93 48.28 37.89 48.57 37.28 49.30 C 36.66 50.03 36.20 51.96 35.75 52.61 C 35.31 53.25 34.83 53.18 34.61 53.18 C 34.38 53.18 34.22 53.21 34.41 52.61 C 34.61 52.00 35.80 50.39 35.75 49.55 C 35.70 48.72 33.08 49.14 34.10 47.58 C 35.11 46.02 40.47 41.85 41.86 40.20 C 43.25 38.56 42.14 38.32 42.43 37.72 C 42.72 37.13 43.42 36.98 43.58 36.64 C 43.73 36.30 43.12 36.30 43.38 35.69 C 43.65 35.07 44.97 33.56 45.17 32.95 C 45.36 32.35 44.46 32.29 44.53 32.06 C 44.60 31.83 45.45 31.76 45.61 31.55 C 45.77 31.34 45.74 30.94 45.48 30.79 Z M 30.22 51.59 C 30.25 51.64 30.21 51.69 30.22 51.72 C 30.23 51.75 30.27 51.72 30.28 51.78 C 30.29 51.84 30.29 52.04 30.28 52.10 C 30.27 52.16 30.23 52.13 30.22 52.16 C 30.21 52.19 30.24 52.25 30.22 52.29 C 30.20 52.33 30.11 52.39 30.09 52.42 C 30.07 52.45 30.15 52.41 30.09 52.48 C 30.03 52.56 29.78 52.80 29.71 52.86 C 29.63 52.93 29.66 52.85 29.64 52.86 C 29.62 52.87 29.61 52.92 29.58 52.93 C 29.55 52.94 29.48 52.92 29.45 52.93 C 29.42 52.94 29.42 52.98 29.39 52.99 C 29.36 53.00 29.30 52.97 29.26 52.99 C 29.22 53.01 29.16 53.06 29.13 53.12 C 29.11 53.17 29.18 53.23 29.13 53.31 C 29.09 53.38 28.94 53.52 28.88 53.56 C 28.82 53.60 28.78 53.55 28.75 53.56 C 28.72 53.57 28.75 53.62 28.69 53.63 C 28.63 53.64 28.44 53.64 28.37 53.63 C 28.31 53.62 28.35 53.57 28.31 53.56 C 28.27 53.55 28.16 53.55 28.12 53.56 C 28.07 53.57 28.09 53.62 28.05 53.63 C 28.02 53.64 27.96 53.62 27.93 53.63 C 27.89 53.64 27.89 53.68 27.86 53.69 C 27.83 53.70 27.77 53.68 27.74 53.69 C 27.70 53.70 27.70 53.74 27.67 53.75 C 27.64 53.76 27.58 53.74 27.54 53.75 C 27.51 53.76 27.50 53.81 27.48 53.82 C 27.46 53.83 27.44 53.83 27.42 53.82 C 27.40 53.81 27.39 53.76 27.35 53.75 C 27.32 53.74 27.29 53.80 27.23 53.75 C 27.16 53.71 27.01 53.58 26.97 53.50 C 26.93 53.41 26.92 53.34 26.97 53.24 C 27.03 53.15 27.23 52.98 27.29 52.93 C 27.35 52.87 27.33 52.94 27.35 52.93 C 27.37 52.92 27.40 52.87 27.42 52.86 C 27.44 52.85 27.46 52.87 27.48 52.86 C 27.50 52.85 27.52 52.81 27.54 52.80 C 27.57 52.79 27.52 52.84 27.61 52.80 C 27.69 52.76 27.96 52.59 28.05 52.54 C 28.15 52.50 28.15 52.56 28.18 52.54 C 28.21 52.53 28.17 52.49 28.24 52.48 C 28.32 52.47 28.55 52.47 28.63 52.48 C 28.70 52.49 28.67 52.54 28.69 52.54 C 28.71 52.54 28.72 52.49 28.75 52.48 C 28.78 52.47 28.84 52.50 28.88 52.48 C 28.92 52.46 28.99 52.40 29.01 52.35 C 29.03 52.31 29.00 52.26 29.01 52.23 C 29.02 52.19 29.06 52.19 29.07 52.16 C 29.08 52.13 29.05 52.08 29.07 52.04 C 29.09 51.99 29.17 51.96 29.20 51.91 C 29.23 51.86 29.20 51.80 29.26 51.72 C 29.33 51.63 29.51 51.45 29.58 51.40 C 29.65 51.35 29.68 51.41 29.71 51.40 C 29.74 51.39 29.75 51.35 29.77 51.34 C 29.79 51.33 29.81 51.33 29.83 51.34 C 29.86 51.35 29.87 51.39 29.90 51.40 C 29.93 51.41 29.97 51.37 30.03 51.40 C 30.08 51.43 30.18 51.54 30.22 51.59 Z M 64.12 30.34 C 64.10 30.28 64.04 30.24 63.99 30.22 C 63.95 30.20 63.90 30.23 63.87 30.22 C 63.84 30.21 63.83 30.16 63.80 30.15 C 63.78 30.14 63.76 30.14 63.74 30.15 C 63.72 30.16 63.71 30.21 63.68 30.22 C 63.65 30.23 63.58 30.21 63.55 30.22 C 63.52 30.23 63.52 30.27 63.49 30.28 C 63.45 30.29 63.39 30.27 63.36 30.28 C 63.33 30.29 63.33 30.33 63.30 30.34 C 63.26 30.35 63.24 30.29 63.17 30.34 C 63.09 30.40 62.92 30.56 62.85 30.66 C 62.78 30.77 62.78 30.89 62.72 30.98 C 62.67 31.06 62.58 31.14 62.53 31.17 C 62.48 31.20 62.44 31.16 62.40 31.17 C 62.37 31.18 62.36 31.23 62.34 31.23 C 62.32 31.23 62.31 31.18 62.28 31.17 C 62.25 31.16 62.22 31.22 62.15 31.17 C 62.08 31.12 61.91 30.91 61.83 30.85 C 61.76 30.80 61.74 30.86 61.70 30.85 C 61.67 30.84 61.70 30.81 61.64 30.79 C 61.58 30.77 61.43 30.78 61.32 30.73 C 61.22 30.67 61.11 30.52 61.01 30.47 C 60.90 30.42 60.75 30.41 60.69 30.41 C 60.62 30.41 60.66 30.46 60.62 30.47 C 60.59 30.48 60.55 30.44 60.50 30.47 C 60.44 30.50 60.34 30.62 60.31 30.66 C 60.27 30.70 60.32 30.70 60.31 30.73 C 60.29 30.75 60.25 30.71 60.24 30.79 C 60.23 30.86 60.21 31.08 60.24 31.17 C 60.27 31.27 60.38 31.33 60.43 31.36 C 60.49 31.39 60.53 31.35 60.56 31.36 C 60.59 31.37 60.59 31.41 60.62 31.42 C 60.66 31.44 60.72 31.41 60.75 31.42 C 60.78 31.44 60.77 31.48 60.81 31.49 C 60.86 31.50 60.96 31.48 61.01 31.49 C 61.05 31.50 61.04 31.54 61.07 31.55 C 61.10 31.56 61.16 31.54 61.20 31.55 C 61.23 31.56 61.23 31.61 61.26 31.62 C 61.29 31.63 61.35 31.61 61.39 31.62 C 61.42 31.63 61.41 31.67 61.45 31.68 C 61.49 31.69 61.60 31.69 61.64 31.68 C 61.68 31.67 61.67 31.63 61.70 31.62 C 61.74 31.61 61.77 31.66 61.83 31.62 C 61.90 31.57 62.02 31.40 62.09 31.36 C 62.15 31.32 62.18 31.37 62.21 31.36 C 62.25 31.35 62.26 31.30 62.28 31.30 C 62.30 31.30 62.31 31.35 62.34 31.36 C 62.37 31.37 62.38 31.30 62.47 31.36 C 62.55 31.42 62.73 31.67 62.85 31.74 C 62.97 31.82 63.10 31.81 63.17 31.81 C 63.23 31.81 63.20 31.75 63.23 31.74 C 63.26 31.73 63.30 31.77 63.36 31.74 C 63.42 31.71 63.56 31.58 63.61 31.55 C 63.67 31.52 63.61 31.61 63.68 31.55 C 63.74 31.50 63.94 31.30 63.99 31.23 C 64.05 31.17 63.98 31.19 63.99 31.17 C 64.01 31.15 64.05 31.19 64.06 31.11 C 64.07 31.02 64.05 30.75 64.06 30.66 C 64.07 30.58 64.11 30.65 64.12 30.60 C 64.13 30.54 64.14 30.41 64.12 30.34 Z M 83.08 10.24 C 82.88 9.96 82.18 9.10 81.74 8.91 C 81.31 8.72 80.80 8.99 80.47 9.10 C 80.14 9.20 80.12 9.51 79.77 9.54 C 79.42 9.57 78.78 9.19 78.37 9.29 C 77.96 9.38 77.84 10.11 77.29 10.11 C 76.74 10.11 75.57 9.33 75.06 9.29 C 74.55 9.25 74.49 9.81 74.24 9.86 C 73.98 9.91 73.78 9.61 73.54 9.61 C 73.29 9.61 73.00 9.87 72.77 9.86 C 72.55 9.85 72.44 9.39 72.20 9.54 C 71.96 9.69 71.52 10.59 71.31 10.75 C 71.10 10.91 71.01 10.63 70.93 10.50 C 70.84 10.36 71.16 10.06 70.80 9.92 C 70.44 9.79 69.24 9.79 68.77 9.67 C 68.29 9.55 68.23 9.29 67.94 9.22 C 67.65 9.16 67.37 9.17 67.05 9.29 C 66.73 9.40 66.49 9.79 66.03 9.92 C 65.57 10.06 65.08 9.92 64.31 10.11 C 63.55 10.31 62.01 10.79 61.45 11.07 C 60.89 11.34 61.19 11.63 60.94 11.77 C 60.70 11.91 60.72 11.51 59.99 11.90 C 59.26 12.28 57.42 13.11 56.55 14.06 C 55.68 15.00 54.87 16.71 54.77 17.56 C 54.68 18.41 55.65 18.88 55.98 19.15 C 56.31 19.41 56.49 19.24 56.74 19.15 C 57.00 19.05 57.32 18.91 57.51 18.58 C 57.70 18.24 57.52 17.72 57.89 17.11 C 58.26 16.51 59.26 15.38 59.73 14.95 C 60.21 14.51 60.47 14.76 60.75 14.50 C 61.03 14.25 61.03 13.65 61.39 13.42 C 61.75 13.20 62.29 13.40 62.91 13.17 C 63.54 12.93 64.47 12.26 65.14 12.02 C 65.81 11.79 66.45 11.92 66.92 11.77 C 67.39 11.62 67.39 11.20 67.94 11.13 C 68.49 11.07 69.69 11.41 70.23 11.39 C 70.77 11.37 70.49 10.96 71.18 11.01 C 71.87 11.05 73.42 11.60 74.36 11.64 C 75.31 11.68 76.29 11.41 76.84 11.26 C 77.40 11.11 77.41 10.77 77.67 10.75 C 77.94 10.73 78.12 11.16 78.44 11.13 C 78.75 11.10 79.29 10.60 79.58 10.56 C 79.87 10.52 79.91 10.85 80.15 10.88 C 80.40 10.91 80.75 10.73 81.04 10.75 C 81.34 10.77 81.62 11.03 81.93 11.01 C 82.25 10.98 82.76 10.75 82.95 10.62 C 83.14 10.50 83.28 10.53 83.08 10.24 Z M 99.94 5.66 C 100.14 4.52 99.07 4.48 98.35 4.52 C 97.63 4.55 96.45 5.29 95.61 5.85 C 94.77 6.41 95.10 7.40 93.32 7.89 C 91.54 8.38 86.45 8.42 84.92 8.78 C 83.40 9.14 84.21 9.74 84.16 10.05 C 84.11 10.36 83.91 10.69 84.61 10.62 C 85.31 10.56 87.57 9.76 88.36 9.67 C 89.14 9.57 88.86 10.19 89.31 10.05 C 89.77 9.91 90.61 8.91 91.09 8.84 C 91.58 8.78 91.84 9.69 92.24 9.67 C 92.64 9.65 93.11 8.83 93.51 8.72 C 93.91 8.60 94.32 9.27 94.66 8.97 C 95.00 8.67 95.04 7.11 95.55 6.93 C 96.06 6.75 97.53 7.61 97.71 7.89 C 97.89 8.16 96.94 7.99 96.63 8.59 C 96.32 9.18 96.34 10.89 95.87 11.45 C 95.39 12.01 94.17 11.74 93.77 11.96 C 93.36 12.18 93.65 12.72 93.45 12.79 C 93.25 12.85 93.46 12.15 92.56 12.34 C 91.66 12.53 89.46 13.71 88.04 13.93 C 86.62 14.15 84.80 13.59 84.03 13.68 C 83.27 13.76 83.46 14.10 83.46 14.44 C 83.46 14.78 83.24 15.47 84.03 15.71 C 84.83 15.96 88.17 15.20 88.23 15.90 C 88.30 16.60 85.35 19.38 84.41 19.91 C 83.48 20.44 83.13 19.13 82.63 19.08 C 82.14 19.04 82.29 19.70 81.42 19.66 C 80.56 19.61 78.73 18.85 77.42 18.83 C 76.10 18.81 74.25 19.14 73.54 19.53 C 72.83 19.92 73.12 20.80 73.16 21.18 C 73.19 21.56 73.12 21.75 73.73 21.82 C 74.33 21.89 76.34 21.42 76.78 21.63 C 77.23 21.84 76.78 22.59 76.40 23.09 C 76.02 23.59 75.65 24.33 74.49 24.62 C 73.34 24.90 70.68 24.92 69.47 24.81 C 68.25 24.70 68.26 24.10 67.18 23.98 C 66.09 23.87 63.77 23.81 62.98 24.11 C 62.18 24.41 62.30 25.33 62.40 25.76 C 62.51 26.20 62.86 26.66 63.61 26.72 C 64.37 26.77 66.14 25.82 66.92 26.08 C 67.71 26.35 67.78 28.18 68.32 28.31 C 68.86 28.44 69.06 27.08 70.17 26.84 C 71.27 26.61 73.45 27.48 74.94 26.91 C 76.42 26.34 78.40 24.14 79.07 23.41 C 79.74 22.68 78.83 22.81 78.94 22.52 C 79.06 22.23 78.93 21.85 79.77 21.69 C 80.61 21.53 82.98 21.69 83.97 21.56 C 84.96 21.44 84.96 21.35 85.69 20.93 C 86.42 20.50 87.73 19.66 88.36 19.02 C 88.98 18.38 89.09 17.45 89.44 17.11 C 89.79 16.77 90.11 17.41 90.46 16.98 C 90.81 16.56 90.67 15.25 91.54 14.57 C 92.41 13.89 94.74 13.44 95.67 12.91 C 96.61 12.38 96.43 12.60 97.14 11.39 C 97.85 10.18 99.73 6.81 99.94 5.66 Z M 0.00 3.24 C -0.30 3.59 -0.29 4.17 0.13 4.96 C 0.54 5.76 0.94 6.84 2.48 8.02 C 4.02 9.19 7.95 10.84 9.35 12.02 C 10.75 13.21 9.82 14.15 10.88 15.14 C 11.94 16.13 14.16 17.38 15.71 17.94 C 17.26 18.50 19.18 17.81 20.17 18.51 C 21.15 19.21 20.94 21.24 21.63 22.14 C 22.32 23.04 22.96 23.51 24.30 23.92 C 25.64 24.33 28.50 23.98 29.64 24.62 C 30.79 25.25 30.31 27.03 31.17 27.74 C 32.03 28.45 34.08 28.84 34.80 28.88 C 35.52 28.92 35.78 28.40 35.50 27.99 C 35.21 27.58 33.47 26.84 33.08 26.40 C 32.69 25.95 32.46 25.47 33.14 25.32 C 33.82 25.17 36.66 25.85 37.15 25.51 C 37.64 25.17 37.23 23.83 36.07 23.28 C 34.90 22.73 31.34 22.29 30.15 22.20 C 28.97 22.12 29.99 23.00 28.94 22.77 C 27.89 22.55 24.65 21.49 23.85 20.87 C 23.06 20.24 22.93 19.18 24.17 19.02 C 25.41 18.86 30.01 19.93 31.30 19.91 C 32.58 19.89 31.96 19.26 31.87 18.89 C 31.79 18.52 33.63 18.25 30.79 17.68 C 27.95 17.12 17.84 16.04 14.82 15.52 C 11.80 15.00 13.16 15.03 12.66 14.57 C 12.16 14.10 10.40 12.78 11.83 12.72 C 13.26 12.67 19.51 14.16 21.25 14.25 C 22.99 14.33 22.50 13.68 22.26 13.23 C 22.03 12.79 20.74 11.80 19.85 11.58 C 18.96 11.35 17.98 12.11 16.92 11.90 C 15.86 11.68 14.25 10.44 13.49 10.31 C 12.72 10.17 13.89 11.58 12.34 11.07 C 10.79 10.56 5.23 7.98 4.20 7.25 C 3.17 6.52 4.50 6.42 6.17 6.68 C 7.85 6.93 9.66 8.31 14.25 8.78 C 18.84 9.25 29.99 9.26 33.72 9.48 C 37.44 9.70 35.38 9.49 36.58 10.11 C 37.78 10.74 40.10 12.20 40.90 13.23 C 41.71 14.26 40.98 15.91 41.41 16.28 C 41.85 16.66 43.34 16.18 43.51 15.46 C 43.68 14.74 43.71 13.25 42.43 11.96 C 41.15 10.67 38.34 8.67 35.81 7.70 C 33.29 6.72 29.12 6.19 27.29 6.11 C 25.46 6.02 27.49 7.15 24.81 7.19 C 22.13 7.23 15.01 7.08 11.20 6.36 C 7.38 5.64 3.77 3.38 1.91 2.86 C 0.04 2.34 0.30 2.89 0.00 3.24 Z M 59.16 1.02 C 58.51 0.63 57.95 0.35 57.25 0.19 C 56.55 0.03 55.57 -0.05 54.96 0.06 C 54.36 0.18 54.10 0.39 53.63 0.89 C 53.15 1.39 52.70 2.41 52.10 3.05 C 51.49 3.70 50.43 3.99 50.00 4.77 C 49.57 5.56 49.67 7.12 49.49 7.76 C 49.31 8.40 48.97 8.25 48.92 8.59 C 48.87 8.93 49.28 9.49 49.17 9.80 C 49.07 10.10 48.45 10.03 48.28 10.43 C 48.11 10.84 48.12 11.80 48.16 12.21 C 48.19 12.63 48.47 12.74 48.47 12.91 C 48.47 13.08 48.19 13.04 48.16 13.23 C 48.12 13.42 48.34 13.84 48.28 14.06 C 48.23 14.28 47.95 14.15 47.84 14.57 C 47.72 14.98 47.69 16.12 47.58 16.54 C 47.48 16.96 47.28 16.57 47.20 17.11 C 47.13 17.65 47.24 19.13 47.14 19.78 C 47.03 20.44 46.64 20.71 46.56 21.06 C 46.49 21.41 46.77 21.64 46.69 21.88 C 46.62 22.13 46.27 22.06 46.12 22.52 C 45.97 22.97 46.09 23.74 45.80 24.62 C 45.52 25.50 44.64 27.17 44.40 27.80 C 44.17 28.42 44.29 28.11 44.40 28.37 C 44.52 28.64 44.65 29.44 45.10 29.39 C 45.56 29.34 46.77 28.53 47.14 28.05 C 47.51 27.58 47.17 26.98 47.33 26.53 C 47.49 26.07 47.92 25.71 48.09 25.32 C 48.26 24.93 48.34 24.58 48.35 24.17 C 48.36 23.77 48.09 23.20 48.16 22.90 C 48.22 22.60 48.67 22.78 48.73 22.39 C 48.78 22.00 48.42 21.03 48.47 20.55 C 48.53 20.06 48.97 19.95 49.05 19.47 C 49.12 18.98 48.82 17.98 48.92 17.62 C 49.01 17.26 49.42 17.49 49.62 17.30 C 49.82 17.11 50.07 16.87 50.13 16.48 C 50.18 16.08 49.88 15.47 49.94 14.95 C 49.99 14.43 50.38 13.95 50.45 13.36 C 50.51 12.77 50.21 11.81 50.32 11.39 C 50.42 10.96 50.98 11.30 51.08 10.81 C 51.19 10.33 50.87 9.13 50.95 8.46 C 51.04 7.79 50.81 7.77 51.59 6.81 C 52.37 5.84 54.71 3.35 55.66 2.67 C 56.62 1.99 56.72 2.59 57.32 2.74 C 57.91 2.88 58.74 3.29 59.22 3.56 C 59.71 3.84 59.99 4.25 60.24 4.39 C 60.50 4.53 60.60 4.70 60.75 4.39 C 60.90 4.08 61.40 3.11 61.13 2.54 C 60.87 1.98 59.81 1.41 59.16 1.02 Z" fill="#1B3B5C" fill-rule="evenodd"/>
  </g>
</svg>
